<svg width="auto" height="36" viewBox="0 0 64 64" fill="none" xmlns="http://www.w3.org/2000/svg">
<rect width="64" height="64" rx="8" fill="white"/>
<path fill-rule="evenodd" clip-rule="evenodd" d="M60 12C60 7.58 56.42 4 52 4H12C7.58 4 4 7.58 4 12V52C4 56.42 7.58 60 12 60H52C56.42 60 60 56.42 60 52V12Z" fill="#FFA6A6"/>
<path fill-rule="evenodd" clip-rule="evenodd" d="M42.6101 40.82C42.5201 40.72 42.3701 40.7 42.2501 40.76C39.2001 42.33 36.0501 42.82 32.9801 42.82C29.9101 42.82 26.8301 42.34 23.7801 40.76C23.6601 40.7 23.5101 40.72 23.4201 40.82C23.3501 40.89 23.2701 40.98 23.1901 41.07C23.1201 41.14 23.0901 41.24 23.1101 41.33C23.1301 41.42 23.1901 41.5 23.2801 41.55C23.8401 41.82 24.9101 42.33 25.5301 42.63C25.6501 42.69 25.7501 42.8 25.7801 42.93C25.8201 43.06 25.8001 43.2 25.7201 43.32C25.3101 43.97 24.5801 45.14 24.2401 45.68C24.1301 45.85 23.9201 45.94 23.7201 45.89C20.6101 45.15 17.5201 43.72 14.6701 41.4C14.5301 41.29 14.4501 41.12 14.4501 40.95C14.1801 32.95 15.8001 26.04 19.9401 20.41C19.9901 20.34 20.0701 20.28 20.1501 20.26C22.5801 19.43 24.9801 18.61 27.4501 18.03C27.6001 18 27.7601 18.04 27.8601 18.15C28.2901 18.63 28.5801 19.3 28.9001 19.93C28.9001 19.93 31.1001 19.69 32.9901 19.65H33.0401C34.9301 19.69 37.1301 19.93 37.1301 19.93C37.4401 19.3 37.7301 18.63 38.1701 18.15C38.2801 18.04 38.4301 17.99 38.5901 18.03C41.0501 18.61 43.4601 19.43 45.8901 20.26C45.9801 20.29 46.0501 20.34 46.1001 20.41C50.2401 26.04 51.8601 32.95 51.5901 40.95C51.5901 41.13 51.5001 41.29 51.3701 41.4C48.5201 43.73 45.4201 45.15 42.3101 45.89C42.1101 45.94 41.9001 45.85 41.7901 45.68C41.4501 45.14 40.7201 43.97 40.3101 43.32C40.2401 43.2 40.2201 43.06 40.2601 42.93C40.3001 42.8 40.3901 42.69 40.5101 42.63C41.1301 42.33 42.2001 41.82 42.7601 41.55C42.8501 41.51 42.9101 41.43 42.9301 41.33C42.9501 41.23 42.9201 41.14 42.8501 41.07C42.7701 40.99 42.6801 40.9 42.6101 40.82ZM39.2301 29.78C41.0501 29.78 42.5301 31.42 42.5301 33.44C42.5301 35.46 41.0501 37.1 39.2301 37.1C37.4101 37.1 35.9301 35.46 35.9301 33.44C35.9301 31.42 37.4101 29.78 39.2301 29.78ZM26.8001 29.78C28.6201 29.78 30.1001 31.42 30.1001 33.44C30.1001 35.46 28.6201 37.1 26.8001 37.1C24.9801 37.1 23.5001 35.46 23.5001 33.44C23.5001 31.42 24.9801 29.78 26.8001 29.78Z" fill="white"/>
</svg>
