<svg width="auto" height="24" viewBox="0 0 49 49" fill="none" xmlns="http://www.w3.org/2000/svg">
<path d="M40.8997 40.8231H8.10034C6.37498 40.8211 4.72087 40.1348 3.50086 38.9148C2.28085 37.6948 1.59456 36.0407 1.59253 34.3153V14.6847C1.59456 12.9593 2.28085 11.3052 3.50086 10.0852C4.72087 8.8652 6.37498 8.1789 8.10034 8.17688H40.8997C42.6251 8.1789 44.2792 8.8652 45.4992 10.0852C46.7192 11.3052 47.4055 12.9593 47.4075 14.6847V34.3153C47.4055 36.0407 46.7192 37.6948 45.4992 38.9148C44.2792 40.1348 42.6251 40.8211 40.8997 40.8231ZM8.10034 10.4738C6.98353 10.4738 5.91246 10.9174 5.12276 11.7071C4.33306 12.4968 3.8894 13.5679 3.8894 14.6847V34.3153C3.8894 35.4321 4.33306 36.5032 5.12276 37.2929C5.91246 38.0826 6.98353 38.5262 8.10034 38.5262H40.8997C42.0165 38.5262 43.0876 38.0826 43.8773 37.2929C44.667 36.5032 45.1107 35.4321 45.1107 34.3153V14.6847C45.1107 13.5679 44.667 12.4968 43.8773 11.7071C43.0876 10.9174 42.0165 10.4738 40.8997 10.4738H8.10034Z" fill="#FFA6A6"/>
<path d="M24.5 29.155C23.0833 29.1572 21.7044 28.6976 20.5723 27.8458L2.695 14.3248C2.56868 14.2362 2.46153 14.123 2.37995 13.992C2.29836 13.861 2.244 13.7149 2.22013 13.5625C2.19625 13.41 2.20335 13.2543 2.24099 13.1047C2.27863 12.955 2.34605 12.8145 2.43921 12.6915C2.53238 12.5685 2.64938 12.4655 2.78323 12.3887C2.91708 12.3119 3.06504 12.2629 3.21826 12.2445C3.37148 12.2262 3.52683 12.2389 3.67502 12.2819C3.82321 12.325 3.96121 12.3974 4.08078 12.495L21.9581 26.0312C22.6923 26.5793 23.5839 26.8754 24.5 26.8754C25.4161 26.8754 26.3077 26.5793 27.0419 26.0312L44.9192 12.495C45.0388 12.3974 45.1768 12.325 45.325 12.2819C45.4732 12.2389 45.6285 12.2262 45.7817 12.2445C45.935 12.2629 46.0829 12.3119 46.2168 12.3887C46.3506 12.4655 46.4676 12.5685 46.5608 12.6915C46.6539 12.8145 46.7214 12.955 46.759 13.1047C46.7966 13.2543 46.8037 13.41 46.7799 13.5625C46.756 13.7149 46.7016 13.861 46.62 13.992C46.5385 14.123 46.4313 14.2362 46.305 14.3248L28.4277 27.8458C27.2956 28.6976 25.9167 29.1572 24.5 29.155Z" fill="#FFA6A6"/>
<path d="M3.19261 37.6228C2.95968 37.6232 2.73216 37.5527 2.54023 37.4207C2.3483 37.2887 2.20104 37.1015 2.11798 36.8839C2.03492 36.6663 2.01999 36.4286 2.07518 36.2023C2.13037 35.976 2.25306 35.7718 2.42698 35.6169L16.5145 23.053C16.7419 22.8499 17.0407 22.7455 17.3451 22.7627C17.6495 22.78 17.9346 22.9174 18.1376 23.1448C18.3407 23.3723 18.4451 23.671 18.4278 23.9754C18.4106 24.2798 18.2732 24.5649 18.0457 24.768L3.95823 37.3319C3.74902 37.5222 3.47543 37.6262 3.19261 37.6228ZM45.8073 37.6228C45.5245 37.6262 45.2509 37.5222 45.0417 37.3319L30.9542 24.768C30.7267 24.5649 30.5893 24.2798 30.5721 23.9754C30.5548 23.671 30.6592 23.3723 30.8623 23.1448C31.0653 22.9174 31.3504 22.78 31.6548 22.7627C31.9592 22.7455 32.258 22.8499 32.4854 23.053L46.5653 35.6169C46.7392 35.7718 46.8619 35.976 46.9171 36.2023C46.9722 36.4286 46.9573 36.6663 46.8743 36.8839C46.7912 37.1015 46.6439 37.2887 46.452 37.4207C46.2601 37.5527 46.0326 37.6232 45.7996 37.6228H45.8073Z" fill="#FFA6A6"/>
</svg>
