<svg width="auto" height="24" viewBox="0 0 45 45" fill="none" xmlns="http://www.w3.org/2000/svg">
<path d="M22.5 22.5C23.5355 22.5 24.375 21.6605 24.375 20.625C24.375 19.5895 23.5355 18.75 22.5 18.75C21.4645 18.75 20.625 19.5895 20.625 20.625C20.625 21.6605 21.4645 22.5 22.5 22.5Z" fill="#FFA6A6"/>
<path d="M30 22.5C31.0355 22.5 31.875 21.6605 31.875 20.625C31.875 19.5895 31.0355 18.75 30 18.75C28.9645 18.75 28.125 19.5895 28.125 20.625C28.125 21.6605 28.9645 22.5 30 22.5Z" fill="#FFA6A6"/>
<path d="M15 22.5C16.0355 22.5 16.875 21.6605 16.875 20.625C16.875 19.5895 16.0355 18.75 15 18.75C13.9645 18.75 13.125 19.5895 13.125 20.625C13.125 21.6605 13.9645 22.5 15 22.5Z" fill="#FFA6A6"/>
<path d="M35.625 5.625H9.375C7.88316 5.625 6.45242 6.21763 5.39752 7.27252C4.34263 8.32742 3.75 9.75816 3.75 11.25V39.375C3.75057 39.7072 3.83942 40.0334 4.00744 40.32C4.17546 40.6066 4.41663 40.8435 4.70625 41.0063C4.98648 41.1651 5.3029 41.249 5.625 41.25C5.96153 41.2499 6.29183 41.1592 6.58125 40.9875L15 35.8875C15.3112 35.7022 15.6694 35.6111 16.0312 35.625H35.625C37.1168 35.625 38.5476 35.0324 39.6025 33.9775C40.6574 32.9226 41.25 31.4918 41.25 30V11.25C41.25 9.75816 40.6574 8.32742 39.6025 7.27252C38.5476 6.21763 37.1168 5.625 35.625 5.625ZM37.5 30C37.5 30.4973 37.3025 30.9742 36.9508 31.3258C36.5992 31.6775 36.1223 31.875 35.625 31.875H16.0312C15.0072 31.8742 14.0023 32.153 13.125 32.6813L7.5 36.0562V11.25C7.5 10.7527 7.69754 10.2758 8.04918 9.92418C8.40081 9.57254 8.87772 9.375 9.375 9.375H35.625C36.1223 9.375 36.5992 9.57254 36.9508 9.92418C37.3025 10.2758 37.5 10.7527 37.5 11.25V30Z" fill="#FFA6A6"/>
</svg>
