<svg width="auto" height="36" viewBox="0 0 64 64" fill="none" xmlns="http://www.w3.org/2000/svg">
<rect width="64" height="64" rx="8" fill="white"/>
<path d="M54.5867 5.33332H9.41341C8.90562 5.32627 8.40141 5.41931 7.92958 5.60714C7.45776 5.79497 7.02755 6.07391 6.66353 6.42802C6.29952 6.78213 6.00883 7.20448 5.80805 7.67095C5.60728 8.13741 5.50036 8.63886 5.49341 9.14665V54.8533C5.50036 55.3611 5.60728 55.8626 5.80805 56.329C6.00883 56.7955 6.29952 57.2178 6.66353 57.572C7.02755 57.9261 7.45776 58.205 7.92958 58.3928C8.40141 58.5807 8.90562 58.6737 9.41341 58.6667H54.5867C55.0945 58.6737 55.5987 58.5807 56.0706 58.3928C56.5424 58.205 56.9726 57.9261 57.3366 57.572C57.7006 57.2178 57.9913 56.7955 58.1921 56.329C58.3929 55.8626 58.4998 55.3611 58.5067 54.8533V9.14665C58.4998 8.63886 58.3929 8.13741 58.1921 7.67095C57.9913 7.20448 57.7006 6.78213 57.3366 6.42802C56.9726 6.07391 56.5424 5.79497 56.0706 5.60714C55.5987 5.41931 55.0945 5.32627 54.5867 5.33332ZM21.5734 49.9733H13.5734V25.9733H21.5734V49.9733ZM17.5734 22.6133C16.4701 22.6133 15.412 22.175 14.6318 21.3949C13.8517 20.6147 13.4134 19.5566 13.4134 18.4533C13.4134 17.35 13.8517 16.2919 14.6318 15.5118C15.412 14.7316 16.4701 14.2933 17.5734 14.2933C18.1593 14.2269 18.7525 14.2849 19.3144 14.4637C19.8763 14.6424 20.394 14.9378 20.8338 15.3306C21.2736 15.7233 21.6255 16.2045 21.8664 16.7426C22.1073 17.2807 22.2319 17.8637 22.2319 18.4533C22.2319 19.0429 22.1073 19.6259 21.8664 20.164C21.6255 20.7022 21.2736 21.1834 20.8338 21.5761C20.394 21.9688 19.8763 22.2642 19.3144 22.443C18.7525 22.6217 18.1593 22.6798 17.5734 22.6133ZM50.4267 49.9733H42.4267V37.0933C42.4267 33.8667 41.2801 31.76 38.3734 31.76C37.4738 31.7666 36.5979 32.0487 35.8636 32.5684C35.1294 33.0882 34.572 33.8205 34.2667 34.6667C34.0581 35.2934 33.9676 35.9535 34.0001 36.6133V49.9467H26.0001C26.0001 49.9467 26.0001 28.1333 26.0001 25.9467H34.0001V29.3333C34.7268 28.0723 35.7838 27.0334 37.0573 26.3285C38.3307 25.6237 39.7723 25.2796 41.2267 25.3333C46.5601 25.3333 50.4267 28.7733 50.4267 36.16V49.9733Z" fill="#FFA6A6"/>
</svg>
