<svg width="auto" height="24" viewBox="0 0 30 41" fill="none" xmlns="http://www.w3.org/2000/svg">
<path d="M15.0077 20.627C19.5367 20.627 23.2081 16.4572 23.2081 11.3135C23.2081 6.1698 19.5367 2 15.0077 2C10.4788 2 6.80737 6.1698 6.80737 11.3135C6.80737 16.4572 10.4788 20.627 15.0077 20.627Z" fill="#EBEBEB" stroke="#FFA6A6" stroke-width="3" stroke-linecap="round" stroke-linejoin="round"/>
<path fill-rule="evenodd" clip-rule="evenodd" d="M2.00003 33.5805C1.99785 32.9258 2.12678 32.279 2.37709 31.6892C3.16257 29.905 5.37763 28.9594 7.21565 28.5312C8.54124 28.2099 9.88513 27.9953 11.2373 27.8889C13.7408 27.6391 16.2587 27.6391 18.7622 27.8889C20.1143 27.9965 21.4581 28.2111 22.7839 28.5312C24.6219 28.9594 26.837 29.8158 27.6225 31.6892C28.1258 32.8915 28.1258 34.2873 27.6225 35.4896C26.837 37.363 24.6219 38.2194 22.7839 38.6298C21.4599 38.9644 20.1155 39.1851 18.7622 39.29C16.7246 39.4862 14.6775 39.5219 12.6355 39.397C12.1642 39.397 11.7086 39.397 11.2373 39.29C9.88912 39.1864 8.54989 38.9657 7.23136 38.6298C5.37763 38.2194 3.17828 37.363 2.37709 35.4896C2.12806 34.893 1.99926 34.2408 2.00003 33.5805Z" fill="#EBEBEB" stroke="#FFA6A6" stroke-width="3" stroke-linecap="round" stroke-linejoin="round"/>
</svg>
